<?xml version="1.0" encoding="utf-8"?>
<!-- Generator: Adobe Illustrator 21.0.0, SVG Export Plug-In . SVG Version: 6.00 Build 0)  -->
<svg version="1.1" id="Layer_1" xmlns="http://www.w3.org/2000/svg" xmlns:xlink="http://www.w3.org/1999/xlink" x="0px" y="0px"
	 viewBox="0 0 1000 1000" style="enable-background:new 0 0 1000 1000;" xml:space="preserve">
<style type="text/css">
	.st0{fill:#603813;}
</style>
<g>
	<path class="st0" d="M666.3,88.5c-36.5-25.6-95.4-13.3-135.6,26.8c30.1,3.4,59.6,13.8,85.3,31.8c25.3,17.7,43.6,40.4,54.5,65.3
		C703.8,167.9,702.6,114,666.3,88.5z M653.2,167.7c-5.5-12.5-14.6-23.8-27.3-32.7c-12.8-9-27.6-14.2-42.6-15.9
		c20.1-20.1,49.6-26.2,67.8-13.4C669.3,118.5,669.8,145.4,653.2,167.7z"/>
</g>
<g>
	<path class="st0" d="M334,89.5c-36.3,25.5-37.5,79.3-4.2,123.9c11-24.9,29.3-47.6,54.5-65.3c25.7-18,55.2-28.4,85.3-31.8
		C429.4,76.2,370.5,64,334,89.5z M374.4,136.1c-12.6,8.8-21.8,20.2-27.3,32.7c-16.6-22.3-16.1-49.2,2.1-61.9
		c18.2-12.8,47.7-6.7,67.8,13.4C402,121.8,387.2,127.1,374.4,136.1z"/>
</g>
<g>
	<path class="st0" d="M637.2,182.2c-59-72.2-168.2-84.9-243.7-28.6s-89,160.6-29.9,232.7s168.2,84.9,243.7,28.6
		C682.9,358.6,696.3,254.4,637.2,182.2z M412.9,240.1c0-11.9,12.2-21.6,27.3-21.6c15.1,0,27.3,9.7,27.3,21.6
		c0,11.9-12.2,21.6-27.3,21.6C425.1,261.7,412.9,252,412.9,240.1z M566.7,390.2c-1.3,0.1-2.5,0.2-3.8,0.2
		c-27.3,0-50.3-23.4-57.6-55.5c-7.3,32.1-30.4,55.5-57.6,55.5c-1.3,0-2.6-0.1-3.8-0.2v-5.7c1.1,0.1,2.2,0.1,3.2,0.1
		c29.8,0,54.2-30.3,55.6-68.3h-12l-12.2-20.2h48.8l-12.2,20.2h-7c1.4,38,25.7,68.3,55.6,68.3c1.1,0,2.2,0,3.2-0.1V390.2z M561,261.7
		c-15.1,0-27.3-9.7-27.3-21.6c0-11.9,12.2-21.6,27.3-21.6c15.1,0,27.3,9.7,27.3,21.6C588.3,252,576,261.7,561,261.7z"/>
</g>
<g>
	<path class="st0" d="M607.5,153.8c-75.6-56.4-184.7-43.6-243.7,28.6s-45.6,176.3,29.9,232.7s184.7,43.6,243.7-28.6
		S683.1,210.2,607.5,153.8z M412.9,240.1c0-11.9,12.2-21.6,27.3-21.6c15.1,0,27.3,9.7,27.3,21.6c0,11.9-12.2,21.6-27.3,21.6
		C425.1,261.7,412.9,252,412.9,240.1z M566.7,390.2c-1.3,0.1-2.5,0.2-3.8,0.2c-27.3,0-50.3-23.4-57.6-55.5
		c-7.3,32.1-30.4,55.5-57.6,55.5c-1.3,0-2.6-0.1-3.8-0.2v-5.7c1.1,0.1,2.2,0.1,3.2,0.1c29.8,0,54.2-30.3,55.6-68.3h-12l-12.2-20.2
		h48.8l-12.2,20.2h-7c1.4,38,25.7,68.3,55.6,68.3c1.1,0,2.2,0,3.2-0.1V390.2z M561,261.7c-15.1,0-27.3-9.7-27.3-21.6
		c0-11.9,12.2-21.6,27.3-21.6c15.1,0,27.3,9.7,27.3,21.6C588.3,252,576,261.7,561,261.7z"/>
</g>
<path class="st0" d="M627.5,412c-31.6,29.9-76.3,48.6-125.8,48.6c-50.1,0-95.2-19.1-126.9-49.7c-48.9,45.6-80.4,117.3-80.4,197.8
	c0,30.2,4.4,59.1,12.5,85.9c6.3-1,12.8-1.5,19.4-1.5c67,0,121.4,51.9,121.4,115.9c0,13.6-2.4,26.6-6.9,38.7
	c18.9,6.9,39,10.7,59.8,10.7s40.9-3.7,59.8-10.7c-4.5-12.1-6.9-25.1-6.9-38.7c0-64,54.3-115.9,121.4-115.9c6.6,0,13.1,0.5,19.4,1.5
	c8.1-26.8,12.5-55.7,12.5-85.9C706.7,528.8,675.7,457.7,627.5,412z"/>
<path class="st0" d="M796.2,550.5c-36.6-60.6-88.2-99.1-121.3-92.8c25.9,41.7,41.3,93.6,41.3,149.9c0,17-1.4,33.6-4.1,49.7
	c35.5,39.8,75.3,59.7,99.6,46.3C843.6,686,836.7,617.4,796.2,550.5z"/>
<path class="st0" d="M289,657.2c-2.7-16.1-4.1-32.7-4.1-49.7c0-56.2,15.4-108.1,41.3-149.9c-33.1-6.3-84.7,32.2-121.3,92.8
	c-40.5,66.9-47.4,135.5-15.4,153.1C213.7,717,253.5,697,289,657.2z"/>
<circle class="st0" cx="322.3" cy="811.8" r="113.8"/>
<circle class="st0" cx="678.9" cy="811.8" r="113.8"/>
<path class="st0" d="M500,0C223.9,0,0,223.9,0,500s223.9,500,500,500s500-223.9,500-500S776.1,0,500,0z M499.4,930.3
	C261.8,930.3,69.1,737.7,69.1,500S261.8,69.7,499.4,69.7S929.7,262.3,929.7,500S737.1,930.3,499.4,930.3z"/>
</svg>
