<?xml version="1.0" encoding="utf-8"?>
<!-- Generator: Adobe Illustrator 21.0.0, SVG Export Plug-In . SVG Version: 6.00 Build 0)  -->
<svg version="1.1" id="Layer_1" xmlns="http://www.w3.org/2000/svg" xmlns:xlink="http://www.w3.org/1999/xlink" x="0px" y="0px"
	 viewBox="0 0 1000 1000" style="enable-background:new 0 0 1000 1000;" xml:space="preserve">
<style type="text/css">
	.st0{fill:#662D91;}
</style>
<g>
	<path class="st0" d="M259.7,361.8c-79.3,0-143.6,64.3-143.6,143.6S180.4,649,259.7,649s143.6-64.3,143.6-143.6
		S339,361.8,259.7,361.8z M259.7,627.4c-67.4,0-122-54.6-122-122s54.6-122,122-122s122,54.6,122,122S327.1,627.4,259.7,627.4z"/>
</g>
<g>
	<path class="st0" d="M259.7,392.7c-62.3,0-112.8,50.5-112.8,112.8s50.5,112.8,112.8,112.8s112.8-50.5,112.8-112.8
		S322,392.7,259.7,392.7z M305.2,470.6h-19v-7.9c-3.5-0.4-7.2-0.7-10.9-0.7c-36.1,0-65.4,22.1-65.4,49.3s29.3,49.3,65.4,49.3
		c7.5,0,14.7-0.9,21.4-2.7l0.2,26.6c-9.3,2.8-19.2,4.3-29.6,4.3c-49.8,0-90.2-34.7-90.2-77.5s40.4-77.5,90.2-77.5
		c6.5,0,12.8,0.6,18.9,1.7v-13.2h19V470.6z"/>
</g>
<g>
	<path class="st0" d="M498.3,556.8c-79.3,0-143.6,64.3-143.6,143.6S419,843.9,498.3,843.9s143.6-64.3,143.6-143.6
		S577.6,556.8,498.3,556.8z M498.3,822.4c-67.4,0-122-54.6-122-122c0-67.4,54.6-122,122-122s122,54.6,122,122
		C620.3,767.7,565.7,822.4,498.3,822.4z"/>
</g>
<g>
	<path class="st0" d="M498.3,587.6c-62.3,0-112.8,50.5-112.8,112.8S436,813.1,498.3,813.1S611,762.6,611,700.3
		S560.6,587.6,498.3,587.6z M582.9,757.1l-28.1,28.1c-2.4,2.4-6.3,2.4-8.7,0l-47.9-47.9l-47.9,47.9c-2.4,2.4-6.3,2.4-8.7,0
		l-28.1-28.1c-2.4-2.4-2.4-6.3,0-8.7l47.9-47.9l-47.9-47.9c-2.4-2.4-2.4-6.3,0-8.7l28.1-28.1c2.4-2.4,6.3-2.4,8.7,0l47.9,47.9
		l47.9-47.9c2.4-2.4,6.3-2.4,8.7,0l28.1,28.1c2.4,2.4,2.4,6.3,0,8.7L535,700.5l47.9,47.9C585.3,750.8,585.3,754.7,582.9,757.1z"/>
</g>
<g>
	<path class="st0" d="M739.1,362c-79.3,0-143.6,64.3-143.6,143.6s64.3,143.6,143.6,143.6s143.6-64.3,143.6-143.6
		S818.4,362,739.1,362z M739.1,627.6c-67.4,0-122-54.6-122-122s54.6-122,122-122s122,54.6,122,122S806.5,627.6,739.1,627.6z"/>
</g>
<g>
	<path class="st0" d="M739.1,392.8c-62.3,0-112.8,50.5-112.8,112.8s50.5,112.8,112.8,112.8s112.8-50.5,112.8-112.8
		S801.4,392.8,739.1,392.8z M813.7,573.9c0,3.4-2.8,6.2-6.2,6.2H671c-3.4,0-6.2-2.8-6.2-6.2V437.4c0-3.4,2.8-6.2,6.2-6.2h136.5
		c3.4,0,6.2,2.8,6.2,6.2V573.9z"/>
</g>
<g>
	<path class="st0" d="M498,164.8c-79.3,0-143.6,64.3-143.6,143.6S418.8,451.9,498,451.9c79.3,0,143.6-64.3,143.6-143.6
		S577.3,164.8,498,164.8z M498,430.4c-67.4,0-122-54.6-122-122s54.6-122,122-122s122,54.6,122,122S565.4,430.4,498,430.4z"/>
</g>
<g>
	<path class="st0" d="M498,195.6c-62.3,0-112.8,50.5-112.8,112.8S435.8,421.1,498,421.1s112.8-50.5,112.8-112.8
		S560.3,195.6,498,195.6z M412.9,360.5c0-1.4,0.2-2.8,0.9-3.8l82.1-142.4c1.1-2,3-2,4.2,0l82.1,142.4c0.6,1,0.9,2.4,0.9,3.8H412.9z"
		/>
</g>
<path class="st0" d="M801.6,438.8H677c-2.5,0-4.6,2.1-4.6,4.6V568c0,2.5,2.1,4.6,4.6,4.6h124.6c2.5,0,4.6-2.1,4.6-4.6V443.4
	C806.2,440.9,804.1,438.8,801.6,438.8z M793,554.6c0,2.5-2.1,4.6-4.6,4.6h-97.8c-2.5,0-4.6-2.1-4.6-4.6v-97.8c0-2.5,2.1-4.6,4.6-4.6
	h97.8c2.5,0,4.6,2.1,4.6,4.6V554.6z"/>
<path class="st0" d="M778.6,462.9h-78.3c-2,0-3.7,1.7-3.7,3.7v78.3c0,2,1.7,3.7,3.7,3.7h78.3c2,0,3.7-1.7,3.7-3.7v-78.3
	C782.3,464.5,780.6,462.9,778.6,462.9z"/>
<path class="st0" d="M571.1,351l-71.3-123.6c-1-1.7-2.6-1.7-3.6,0L424.8,351c-0.5,0.9-0.8,2.1-0.7,3.3h147.7
	C571.8,353.1,571.6,351.9,571.1,351z M438.9,345.5c0-1,0.2-1.9,0.6-2.7l57-98.9c0.8-1.4,2.1-1.4,2.9,0l57,98.9
	c0.4,0.7,0.6,1.7,0.6,2.7H438.9z"/>
<path class="st0" d="M499.2,254.5c-0.7-1.2-1.8-1.2-2.5,0l-48.5,84.1c-0.4,0.6-0.5,1.4-0.5,2.3h100.4c0-0.8-0.1-1.6-0.5-2.3
	L499.2,254.5z"/>
<g>
	<path class="st0" d="M500.7,0C224.5-0.2,0.5,223.5,0.3,499.7S223.8,999.8,500,1000s500.2-223.5,500.3-499.7
		C1000.5,224.2,776.8,0.2,500.7,0z M500.1,903.8c-223-0.2-403.6-181-403.5-404c0.2-223,181-403.6,404-403.5
		c223,0.2,403.6,181,403.5,404S723,903.9,500.1,903.8z"/>
</g>
</svg>
