<?xml version="1.0" encoding="utf-8"?>
<!-- Generator: Adobe Illustrator 21.0.0, SVG Export Plug-In . SVG Version: 6.00 Build 0)  -->
<svg version="1.1" id="Layer_1" xmlns="http://www.w3.org/2000/svg" xmlns:xlink="http://www.w3.org/1999/xlink" x="0px" y="0px"
	 viewBox="0 0 1000 1000" style="enable-background:new 0 0 1000 1000;" xml:space="preserve">
<style type="text/css">
	.st0{fill:#0000FF;}
</style>
<path class="st0" d="M497-0.5C220.9-0.5-3,223.4-3,499.5s223.9,500,500,500s500-223.9,500-500S773.1-0.5,497-0.5z M473.6,928.5
	c-46,0-83.4-30.2-83.4-67.5s37.3-67.5,83.4-67.5S557,823.7,557,861S519.7,928.5,473.6,928.5z M536,572.4v154.1H411.3v-251H536v0.3
	c88.9-8.2,158-69.3,158-143.5c0-79.8-79.9-144.5-178.4-144.5s-178.4,64.7-178.4,144.5c0,0.1,0,0.2,0,0.3h-119c0-0.1,0-0.2,0-0.3
	c0-133,133.1-240.8,297.4-240.8S813,199.3,813,332.2C813,459.7,690.7,563.9,536,572.4z"/>
</svg>
