<?xml version="1.0" encoding="utf-8"?>
<!-- Generator: Adobe Illustrator 21.0.0, SVG Export Plug-In . SVG Version: 6.00 Build 0)  -->
<svg version="1.1" id="Layer_1" xmlns="http://www.w3.org/2000/svg" xmlns:xlink="http://www.w3.org/1999/xlink" x="0px" y="0px"
	 viewBox="0 0 1000 1000" style="enable-background:new 0 0 1000 1000;" xml:space="preserve">
<style type="text/css">
	.st0{fill:#D9E021;}
</style>
<g>
	<path class="st0" d="M500,3C223.3,3-1.1,226-1.1,501.1S223.3,999.1,500,999.1s501.1-223,501.1-498.1S776.7,3,500,3z M774.7,310.7
		v403.7h0c0,0.2,0,0.3,0,0.5c0,49.8-60.2,90.2-134.5,90.2s-134.5-40.4-134.5-90.2s60.2-90.2,134.5-90.2c34.7,0,66.3,8.8,90.2,23.3
		V310.7H455.8v403.7h0c0,0.2,0,0.3,0,0.5c0,49.8-60.2,90.2-134.5,90.2s-134.5-40.4-134.5-90.2s60.2-90.2,134.5-90.2
		c34.7,0,66.3,8.8,90.2,23.3V310.7V198.1h44.3h274.6h44.3V310.7z"/>
</g>
</svg>
