<?xml version="1.0" encoding="utf-8"?>
<!-- Generator: Adobe Illustrator 21.0.0, SVG Export Plug-In . SVG Version: 6.00 Build 0)  -->
<svg version="1.1" id="Layer_1" xmlns="http://www.w3.org/2000/svg" xmlns:xlink="http://www.w3.org/1999/xlink" x="0px" y="0px"
	 viewBox="0 0 1000 1000" style="enable-background:new 0 0 1000 1000;" xml:space="preserve">
<style type="text/css">
	.st0{fill:#F15A24;}
</style>
<g>
	<path class="st0" d="M498,0C220.8,0-4,223.9-4,500s224.8,500,502,500s502-223.9,502-500S775.2,0,498,0z M706.8,863
		c0,6.6-5.4,12-12,12H302.2c-6.6,0-12-5.4-12-12V137c0-6.6,5.4-12,12-12h392.6c6.6,0,12,5.4,12,12V863z"/>
</g>
<g>
	<path class="st0" d="M686.9,140H310.1c-6.4,0-11.6,5.2-11.6,11.5v697c0,6.3,5.2,11.5,11.6,11.5h376.9c6.4,0,11.6-5.2,11.6-11.5
		v-697C698.5,145.2,693.3,140,686.9,140z M498,846.6c-24,0-43.4-19.3-43.4-43.2s19.4-43.2,43.4-43.2c24,0,43.4,19.3,43.4,43.2
		S522,846.6,498,846.6z M688.5,741.9c0,6.3-5.2,11.5-11.6,11.5H320.1c-6.4,0-11.6-5.2-11.6-11.5V162.1c0-6.3,5.2-11.5,11.6-11.5
		h356.9c6.4,0,11.6,5.2,11.6,11.5V741.9z"/>
</g>
<g>
	<path class="st0" d="M649.6,188.5H347.4c-5.4,0-9.8,4.5-9.8,10.1v506.9c0,5.5,4.4,10.1,9.8,10.1h302.2c5.4,0,9.8-4.5,9.8-10.1
		V198.6C659.4,193,655,188.5,649.6,188.5z"/>
</g>
<g>
	<path class="st0" d="M498,765c-21.1,0-38.1,17-38.1,38s17.1,38,38.1,38c21.1,0,38.1-17,38.1-38S519.1,765,498,765z M522.6,815.7
		c0,6.4-5.3,11.7-11.7,11.7h-25.6c-6.5,0-11.7-5.3-11.7-11.7v-25.5c0-6.4,5.3-11.7,11.7-11.7h25.6c6.5,0,11.7,5.3,11.7,11.7V815.7z"
		/>
</g>
<g>
	<path class="st0" d="M508.4,783.1h-20.8c-5.2,0-9.5,4.3-9.5,9.5v20.7c0,5.2,4.3,9.5,9.5,9.5h20.8c5.2,0,9.5-4.3,9.5-9.5v-20.7
		C517.9,787.4,513.6,783.1,508.4,783.1z"/>
</g>
</svg>
