<?xml version="1.0" encoding="utf-8"?>
<!-- Generator: Adobe Illustrator 21.0.0, SVG Export Plug-In . SVG Version: 6.00 Build 0)  -->
<svg version="1.1" id="Layer_1" xmlns="http://www.w3.org/2000/svg" xmlns:xlink="http://www.w3.org/1999/xlink" x="0px" y="0px"
	 viewBox="0 0 1000 1000" style="enable-background:new 0 0 1000 1000;" xml:space="preserve">
<style type="text/css">
	.st0{fill:#000001;}
	.st1{fill:#010102;}
	.st2{fill:#010103;}
	.st3{fill:#010104;}
	.st4{fill:#020205;}
	.st5{fill:#020206;}
	.st6{fill:#020207;}
	.st7{fill:#030308;}
	.st8{fill:#030309;}
	.st9{fill:#03030A;}
	.st10{fill:#03040B;}
	.st11{fill:#04040C;}
	.st12{fill:#04040D;}
	.st13{fill:#04050E;}
	.st14{fill:#05050F;}
	.st15{fill:#050510;}
	.st16{fill:#050611;}
	.st17{fill:#060612;}
	.st18{fill:#060613;}
	.st19{fill:#060714;}
	.st20{fill:#070715;}
	.st21{fill:#070716;}
	.st22{fill:#070817;}
	.st23{fill:#080818;}
	.st24{fill:#080819;}
	.st25{fill:#08091A;}
	.st26{fill:#09091B;}
	.st27{fill:#09091C;}
	.st28{fill:#090A1D;}
	.st29{fill:#090A1E;}
	.st30{fill:#0A0A1F;}
	.st31{fill:#0A0B20;}
	.st32{fill:#0A0B21;}
	.st33{fill:#0B0B22;}
	.st34{fill:#0B0C23;}
	.st35{fill:#0B0C24;}
	.st36{fill:#0C0C25;}
	.st37{fill:#0C0D26;}
	.st38{fill:#0C0D27;}
	.st39{fill:#0D0D28;}
	.st40{fill:#0D0E29;}
	.st41{fill:#0D0E2A;}
	.st42{fill:#0E0E2B;}
	.st43{fill:#0E0F2C;}
	.st44{fill:#0E0F2D;}
	.st45{fill:#0E0F2E;}
	.st46{fill:#0F102F;}
	.st47{fill:#0F1030;}
	.st48{fill:#0F1031;}
	.st49{fill:#101132;}
	.st50{fill:#101133;}
	.st51{fill:#101134;}
	.st52{fill:#111235;}
	.st53{fill:#111236;}
	.st54{fill:#111237;}
	.st55{fill:#121338;}
	.st56{fill:#121339;}
	.st57{fill:#12133A;}
	.st58{fill:#13143B;}
	.st59{fill:#13143C;}
	.st60{fill:#13143D;}
	.st61{fill:#14153E;}
	.st62{fill:#14153F;}
	.st63{fill:#141540;}
	.st64{fill:#141641;}
	.st65{fill:#151642;}
	.st66{fill:#151643;}
	.st67{fill:#151744;}
	.st68{fill:#161745;}
	.st69{fill:#161746;}
	.st70{fill:#161847;}
	.st71{fill:#171848;}
	.st72{fill:#171849;}
	.st73{fill:#17194A;}
	.st74{fill:#18194B;}
	.st75{fill:#181A4C;}
	.st76{fill:#181A4D;}
	.st77{fill:#191A4E;}
	.st78{fill:#191B4F;}
	.st79{fill:#191B50;}
	.st80{fill:#1A1B51;}
	.st81{fill:#1A1C52;}
	.st82{fill:#1A1C53;}
	.st83{fill:#1A1C54;}
	.st84{fill:#1B1D55;}
	.st85{fill:#1B1D56;}
	.st86{fill:#1B1D57;}
	.st87{fill:#1C1E58;}
	.st88{fill:#1C1E59;}
	.st89{fill:#1C1E5A;}
	.st90{fill:#1D1F5B;}
	.st91{fill:#1D1F5C;}
	.st92{fill:#1D1F5D;}
	.st93{fill:#1E205E;}
	.st94{fill:#1E205F;}
	.st95{fill:#1E2060;}
	.st96{fill:#1F2161;}
	.st97{fill:#1F2162;}
	.st98{fill:#1F2163;}
	.st99{fill:#202264;}
	.st100{fill:#202265;}
	.st101{fill:#202266;}
	.st102{fill:#202367;}
	.st103{fill:#212368;}
	.st104{fill:#212369;}
	.st105{fill:#21246A;}
	.st106{fill:#22246B;}
	.st107{fill:#22246C;}
	.st108{fill:#22256D;}
	.st109{fill:#23256E;}
	.st110{fill:#23256F;}
	.st111{fill:#232670;}
	.st112{fill:#242671;}
	.st113{fill:#242672;}
	.st114{fill:#242773;}
	.st115{fill:#252774;}
	.st116{fill:#252775;}
	.st117{fill:#252876;}
	.st118{fill:#252877;}
	.st119{fill:#262878;}
	.st120{fill:#262979;}
	.st121{fill:#26297A;}
	.st122{fill:#27297B;}
	.st123{fill:#272A7C;}
	.st124{fill:#272A7D;}
	.st125{fill:#282A7E;}
	.st126{fill:#282B7F;}
	.st127{fill:#282B80;}
	.st128{fill:#292B81;}
	.st129{fill:#292C82;}
	.st130{fill:#292C83;}
	.st131{fill:#2A2C84;}
	.st132{fill:#2A2D85;}
	.st133{fill:#2A2D86;}
	.st134{fill:#2B2D87;}
	.st135{fill:#2B2E88;}
	.st136{fill:#2B2E89;}
	.st137{fill:#2B2E8A;}
	.st138{fill:#2C2F8B;}
	.st139{fill:#2C2F8C;}
	.st140{fill:#2C2F8D;}
	.st141{fill:#2D308E;}
	.st142{fill:#2D308F;}
	.st143{fill:#2D3090;}
	.st144{fill:#2E3191;}
	.st145{fill:#2E3192;}
	.st146{fill:#2F3191;}
	.st147{fill:#303191;}
	.st148{fill:#313290;}
	.st149{fill:#323290;}
	.st150{fill:#33328F;}
	.st151{fill:#34328F;}
	.st152{fill:#35328E;}
	.st153{fill:#36338D;}
	.st154{fill:#37338D;}
	.st155{fill:#38338C;}
	.st156{fill:#39338C;}
	.st157{fill:#3A348B;}
	.st158{fill:#3B348B;}
	.st159{fill:#3C348A;}
	.st160{fill:#3D348A;}
	.st161{fill:#3E3489;}
	.st162{fill:#3F3588;}
	.st163{fill:#403588;}
	.st164{fill:#413587;}
	.st165{fill:#423587;}
	.st166{fill:#433586;}
	.st167{fill:#443686;}
	.st168{fill:#453685;}
	.st169{fill:#463684;}
	.st170{fill:#473684;}
	.st171{fill:#483683;}
	.st172{fill:#493783;}
	.st173{fill:#4A3782;}
	.st174{fill:#4B3782;}
	.st175{fill:#4C3781;}
	.st176{fill:#4D3881;}
	.st177{fill:#4E3880;}
	.st178{fill:#4F387F;}
	.st179{fill:#50387F;}
	.st180{fill:#51387E;}
	.st181{fill:#52397E;}
	.st182{fill:#53397D;}
	.st183{fill:#54397D;}
	.st184{fill:#55397C;}
	.st185{fill:#56397B;}
	.st186{fill:#573A7B;}
	.st187{fill:#583A7A;}
	.st188{fill:#593A7A;}
	.st189{fill:#5A3A79;}
	.st190{fill:#5B3A79;}
	.st191{fill:#5C3B78;}
	.st192{fill:#5D3B77;}
	.st193{fill:#5E3B77;}
	.st194{fill:#5F3B76;}
	.st195{fill:#603C76;}
	.st196{fill:#613C75;}
	.st197{fill:#623C75;}
	.st198{fill:#633C74;}
	.st199{fill:#643C74;}
	.st200{fill:#653D73;}
	.st201{fill:#663D72;}
	.st202{fill:#673D72;}
	.st203{fill:#683D71;}
	.st204{fill:#693D71;}
	.st205{fill:#6A3E70;}
	.st206{fill:#6B3E70;}
	.st207{fill:#6C3E6F;}
	.st208{fill:#6D3E6E;}
	.st209{fill:#6E3E6E;}
	.st210{fill:#6F3F6D;}
	.st211{fill:#703F6D;}
	.st212{fill:#713F6C;}
	.st213{fill:#723F6C;}
	.st214{fill:#73406B;}
	.st215{fill:#74406B;}
	.st216{fill:#75406A;}
	.st217{fill:#764069;}
	.st218{fill:#774069;}
	.st219{fill:#784168;}
	.st220{fill:#794168;}
	.st221{fill:#7A4167;}
	.st222{fill:#7B4167;}
	.st223{fill:#7C4166;}
	.st224{fill:#7D4265;}
	.st225{fill:#7E4265;}
	.st226{fill:#7F4264;}
	.st227{fill:#804264;}
	.st228{fill:#814263;}
	.st229{fill:#824363;}
	.st230{fill:#834362;}
	.st231{fill:#844361;}
	.st232{fill:#854361;}
	.st233{fill:#864460;}
	.st234{fill:#874460;}
	.st235{fill:#88445F;}
	.st236{fill:#89445F;}
	.st237{fill:#8A445E;}
	.st238{fill:#8B455E;}
	.st239{fill:#8C455D;}
	.st240{fill:#8D455C;}
	.st241{fill:#8E455C;}
	.st242{fill:#8F455B;}
	.st243{fill:#90465B;}
	.st244{fill:#91465A;}
	.st245{fill:#92465A;}
	.st246{fill:#934659;}
	.st247{fill:#944658;}
	.st248{fill:#954758;}
	.st249{fill:#964757;}
	.st250{fill:#974757;}
	.st251{fill:#984756;}
	.st252{fill:#994756;}
	.st253{fill:#9A4855;}
	.st254{fill:#9B4855;}
	.st255{fill:#9C4854;}
	.st256{fill:#9D4853;}
	.st257{fill:#9E4953;}
	.st258{fill:#9F4952;}
	.st259{fill:#A04952;}
	.st260{fill:#A14951;}
	.st261{fill:#A24951;}
	.st262{fill:#A34A50;}
	.st263{fill:#A44A4F;}
	.st264{fill:#A54A4F;}
	.st265{fill:#A64A4E;}
	.st266{fill:#A74A4E;}
	.st267{fill:#A84B4D;}
	.st268{fill:#A94B4D;}
	.st269{fill:#AA4B4C;}
	.st270{fill:#AB4B4B;}
	.st271{fill:#AC4B4B;}
	.st272{fill:#AD4C4A;}
	.st273{fill:#AE4C4A;}
	.st274{fill:#AF4C49;}
	.st275{fill:#B04C49;}
	.st276{fill:#B14D48;}
	.st277{fill:#B24D48;}
	.st278{fill:#B34D47;}
	.st279{fill:#B44D46;}
	.st280{fill:#B54D46;}
	.st281{fill:#B64E45;}
	.st282{fill:#B74E45;}
	.st283{fill:#B84E44;}
	.st284{fill:#B94E44;}
	.st285{fill:#BA4E43;}
	.st286{fill:#BB4F42;}
	.st287{fill:#BC4F42;}
	.st288{fill:#BD4F41;}
	.st289{fill:#BE4F41;}
	.st290{fill:#BF4F40;}
	.st291{fill:#C05040;}
	.st292{fill:#C1503F;}
	.st293{fill:#C2503F;}
	.st294{fill:#C3503E;}
	.st295{fill:#C4513D;}
	.st296{fill:#C5513D;}
	.st297{fill:#C6513C;}
	.st298{fill:#C7513C;}
	.st299{fill:#C8513B;}
	.st300{fill:#C9523B;}
	.st301{fill:#CA523A;}
	.st302{fill:#CB5239;}
	.st303{fill:#CC5239;}
	.st304{fill:#CD5238;}
	.st305{fill:#CE5338;}
	.st306{fill:#CF5337;}
	.st307{fill:#D05337;}
	.st308{fill:#D15336;}
	.st309{fill:#D25335;}
	.st310{fill:#D35435;}
	.st311{fill:#D45434;}
	.st312{fill:#D55434;}
	.st313{fill:#D65433;}
	.st314{fill:#D75533;}
	.st315{fill:#D85532;}
	.st316{fill:#D95532;}
	.st317{fill:#DA5531;}
	.st318{fill:#DB5530;}
	.st319{fill:#DC5630;}
	.st320{fill:#DD562F;}
	.st321{fill:#DE562F;}
	.st322{fill:#DF562E;}
	.st323{fill:#E0562E;}
	.st324{fill:#E1572D;}
	.st325{fill:#E2572C;}
	.st326{fill:#E3572C;}
	.st327{fill:#E4572B;}
	.st328{fill:#E5572B;}
	.st329{fill:#E6582A;}
	.st330{fill:#E7582A;}
	.st331{fill:#E85829;}
	.st332{fill:#E95829;}
	.st333{fill:#EA5928;}
	.st334{fill:#EB5927;}
	.st335{fill:#EC5927;}
	.st336{fill:#ED5926;}
	.st337{fill:#EE5926;}
	.st338{fill:#EF5A25;}
	.st339{fill:#F05A25;}
	.st340{fill:#F15A24;}
	.st341{fill:#2E3192;stroke:#F15A24;stroke-width:5;stroke-miterlimit:10;}
	.st342{fill:#F15A24;stroke:#2E3192;stroke-width:5;stroke-miterlimit:10;}
	.st343{fill:none;stroke:#2E3192;stroke-width:5;stroke-miterlimit:10;}
	.st344{fill:none;stroke:#F15A24;stroke-width:5;stroke-miterlimit:10;}
</style>
<g>
	<circle cx="503" cy="499" r="500"/>
	<circle class="st0" cx="503" cy="499" r="497.8"/>
	<circle class="st1" cx="503" cy="499" r="495.7"/>
	<circle class="st2" cx="503" cy="499" r="493.5"/>
	<circle class="st3" cx="503" cy="499" r="491.4"/>
	<circle class="st4" cx="503" cy="499" r="489.2"/>
	<circle class="st5" cx="503" cy="499" r="487"/>
	<circle class="st6" cx="503" cy="499" r="484.9"/>
	<circle class="st7" cx="503" cy="499" r="482.7"/>
	<circle class="st8" cx="503" cy="499" r="480.6"/>
	<circle class="st9" cx="503" cy="499" r="478.4"/>
	<circle class="st10" cx="503" cy="499" r="476.2"/>
	<circle class="st11" cx="503" cy="499" r="474.1"/>
	<circle class="st12" cx="503" cy="499" r="471.9"/>
	<circle class="st13" cx="503" cy="499" r="469.7"/>
	<circle class="st14" cx="503.1" cy="498.9" r="467.6"/>
	<circle class="st15" cx="503.1" cy="498.9" r="465.4"/>
	<circle class="st16" cx="503.1" cy="498.9" r="463.3"/>
	<circle class="st17" cx="503.1" cy="498.9" r="461.1"/>
	<circle class="st18" cx="503.1" cy="498.9" r="458.9"/>
	<circle class="st19" cx="503.1" cy="498.9" r="456.8"/>
	<circle class="st20" cx="503.1" cy="498.9" r="454.6"/>
	<circle class="st21" cx="503.1" cy="498.9" r="452.5"/>
	<circle class="st22" cx="503.1" cy="498.9" r="450.3"/>
	<circle class="st23" cx="503.1" cy="498.9" r="448.1"/>
	<circle class="st24" cx="503.1" cy="498.9" r="446"/>
	<circle class="st25" cx="503.1" cy="498.9" r="443.8"/>
	<circle class="st26" cx="503.1" cy="498.9" r="441.7"/>
	<circle class="st27" cx="503.1" cy="498.9" r="439.5"/>
	<circle class="st28" cx="503.1" cy="498.9" r="437.3"/>
	<circle class="st29" cx="503.1" cy="498.9" r="435.2"/>
	<circle class="st30" cx="503.1" cy="498.9" r="433"/>
	<circle class="st31" cx="503.1" cy="498.9" r="430.8"/>
	<circle class="st32" cx="503.1" cy="498.9" r="428.7"/>
	<circle class="st33" cx="503.1" cy="498.9" r="426.5"/>
	<circle class="st34" cx="503.1" cy="498.9" r="424.4"/>
	<circle class="st35" cx="503.1" cy="498.9" r="422.2"/>
	<circle class="st36" cx="503.1" cy="498.9" r="420"/>
	<circle class="st37" cx="503.1" cy="498.9" r="417.9"/>
	<circle class="st38" cx="503.1" cy="498.9" r="415.7"/>
	<circle class="st39" cx="503.1" cy="498.9" r="413.6"/>
	<circle class="st40" cx="503.1" cy="498.9" r="411.4"/>
	<circle class="st41" cx="503.1" cy="498.9" r="409.2"/>
	<circle class="st42" cx="503.1" cy="498.9" r="407.1"/>
	<circle class="st43" cx="503.2" cy="498.8" r="404.9"/>
	<circle class="st44" cx="503.2" cy="498.8" r="402.8"/>
	<circle class="st45" cx="503.2" cy="498.8" r="400.6"/>
	<circle class="st46" cx="503.2" cy="498.8" r="398.4"/>
	<circle class="st47" cx="503.2" cy="498.8" r="396.3"/>
	<circle class="st48" cx="503.2" cy="498.8" r="394.1"/>
	<circle class="st49" cx="503.2" cy="498.8" r="392"/>
	<circle class="st50" cx="503.2" cy="498.8" r="389.8"/>
	<circle class="st51" cx="503.2" cy="498.8" r="387.6"/>
	<circle class="st52" cx="503.2" cy="498.8" r="385.5"/>
	<circle class="st53" cx="503.2" cy="498.8" r="383.3"/>
	<circle class="st54" cx="503.2" cy="498.8" r="381.1"/>
	<circle class="st55" cx="503.2" cy="498.8" r="379"/>
	<circle class="st56" cx="503.2" cy="498.8" r="376.8"/>
	<circle class="st57" cx="503.2" cy="498.8" r="374.7"/>
	<circle class="st58" cx="503.2" cy="498.8" r="372.5"/>
	<circle class="st59" cx="503.2" cy="498.8" r="370.3"/>
	<circle class="st60" cx="503.2" cy="498.8" r="368.2"/>
	<circle class="st61" cx="503.2" cy="498.8" r="366"/>
	<circle class="st62" cx="503.2" cy="498.8" r="363.9"/>
	<circle class="st63" cx="503.2" cy="498.8" r="361.7"/>
	<circle class="st64" cx="503.2" cy="498.8" r="359.5"/>
	<circle class="st65" cx="503.2" cy="498.8" r="357.4"/>
	<circle class="st66" cx="503.2" cy="498.8" r="355.2"/>
	<circle class="st67" cx="503.2" cy="498.8" r="353.1"/>
	<circle class="st68" cx="503.2" cy="498.8" r="350.9"/>
	<circle class="st69" cx="503.2" cy="498.8" r="348.7"/>
	<circle class="st70" cx="503.2" cy="498.8" r="346.6"/>
	<circle class="st71" cx="503.2" cy="498.8" r="344.4"/>
	<circle class="st72" cx="503.2" cy="498.8" r="342.2"/>
	<circle class="st73" cx="503.3" cy="498.7" r="340.1"/>
	<circle class="st74" cx="503.3" cy="498.7" r="337.9"/>
	<circle class="st75" cx="503.3" cy="498.7" r="335.8"/>
	<circle class="st76" cx="503.3" cy="498.7" r="333.6"/>
	<circle class="st77" cx="503.3" cy="498.7" r="331.4"/>
	<circle class="st78" cx="503.3" cy="498.7" r="329.3"/>
	<circle class="st79" cx="503.3" cy="498.7" r="327.1"/>
	<circle class="st80" cx="503.3" cy="498.7" r="325"/>
	<circle class="st81" cx="503.3" cy="498.7" r="322.8"/>
	<circle class="st82" cx="503.3" cy="498.7" r="320.6"/>
	<circle class="st83" cx="503.3" cy="498.7" r="318.5"/>
	<circle class="st84" cx="503.3" cy="498.7" r="316.3"/>
	<circle class="st85" cx="503.3" cy="498.7" r="314.2"/>
	<circle class="st86" cx="503.3" cy="498.7" r="312"/>
	<circle class="st87" cx="503.3" cy="498.7" r="309.8"/>
	<circle class="st88" cx="503.3" cy="498.7" r="307.7"/>
	<circle class="st89" cx="503.3" cy="498.7" r="305.5"/>
	<circle class="st90" cx="503.3" cy="498.7" r="303.4"/>
	<circle class="st91" cx="503.3" cy="498.7" r="301.2"/>
	<circle class="st92" cx="503.3" cy="498.7" r="299"/>
	<circle class="st93" cx="503.3" cy="498.7" r="296.9"/>
	<circle class="st94" cx="503.3" cy="498.7" r="294.7"/>
	<circle class="st95" cx="503.3" cy="498.7" r="292.5"/>
	<circle class="st96" cx="503.3" cy="498.7" r="290.4"/>
	<circle class="st97" cx="503.3" cy="498.7" r="288.2"/>
	<circle class="st98" cx="503.3" cy="498.7" r="286.1"/>
	<circle class="st99" cx="503.3" cy="498.7" r="283.9"/>
	<circle class="st100" cx="503.3" cy="498.7" r="281.7"/>
	<circle class="st101" cx="503.3" cy="498.7" r="279.6"/>
	<circle class="st102" cx="503.4" cy="498.6" r="277.4"/>
	<circle class="st103" cx="503.4" cy="498.6" r="275.3"/>
	<circle class="st104" cx="503.4" cy="498.6" r="273.1"/>
	<circle class="st105" cx="503.4" cy="498.6" r="270.9"/>
	<circle class="st106" cx="503.4" cy="498.6" r="268.8"/>
	<circle class="st107" cx="503.4" cy="498.6" r="266.6"/>
	<circle class="st108" cx="503.4" cy="498.6" r="264.5"/>
	<circle class="st109" cx="503.4" cy="498.6" r="262.3"/>
	<circle class="st110" cx="503.4" cy="498.6" r="260.1"/>
	<circle class="st111" cx="503.4" cy="498.6" r="258"/>
	<circle class="st112" cx="503.4" cy="498.6" r="255.8"/>
	<circle class="st113" cx="503.4" cy="498.6" r="253.7"/>
	<circle class="st114" cx="503.4" cy="498.6" r="251.5"/>
	<circle class="st115" cx="503.4" cy="498.6" r="249.3"/>
	<circle class="st116" cx="503.4" cy="498.6" r="247.2"/>
	<circle class="st117" cx="503.4" cy="498.6" r="245"/>
	<circle class="st118" cx="503.4" cy="498.6" r="242.8"/>
	<circle class="st119" cx="503.4" cy="498.6" r="240.7"/>
	<circle class="st120" cx="503.4" cy="498.6" r="238.5"/>
	<circle class="st121" cx="503.4" cy="498.6" r="236.4"/>
	<circle class="st122" cx="503.4" cy="498.6" r="234.2"/>
	<circle class="st123" cx="503.4" cy="498.6" r="232"/>
	<circle class="st124" cx="503.4" cy="498.6" r="229.9"/>
	<circle class="st125" cx="503.4" cy="498.6" r="227.7"/>
	<circle class="st126" cx="503.4" cy="498.6" r="225.6"/>
	<circle class="st127" cx="503.4" cy="498.6" r="223.4"/>
	<circle class="st128" cx="503.4" cy="498.6" r="221.2"/>
	<circle class="st129" cx="503.4" cy="498.6" r="219.1"/>
	<circle class="st130" cx="503.4" cy="498.6" r="216.9"/>
	<circle class="st131" cx="503.5" cy="498.5" r="214.8"/>
	<circle class="st132" cx="503.5" cy="498.5" r="212.6"/>
	<circle class="st133" cx="503.5" cy="498.5" r="210.4"/>
	<circle class="st134" cx="503.5" cy="498.5" r="208.3"/>
	<circle class="st135" cx="503.5" cy="498.5" r="206.1"/>
	<circle class="st136" cx="503.5" cy="498.5" r="203.9"/>
	<circle class="st137" cx="503.5" cy="498.5" r="201.8"/>
	<circle class="st138" cx="503.5" cy="498.5" r="199.6"/>
	<circle class="st139" cx="503.5" cy="498.5" r="197.5"/>
	<circle class="st140" cx="503.5" cy="498.5" r="195.3"/>
	<circle class="st141" cx="503.5" cy="498.5" r="193.1"/>
	<circle class="st142" cx="503.5" cy="498.5" r="191"/>
	<circle class="st143" cx="503.5" cy="498.5" r="188.8"/>
	<circle class="st144" cx="503.5" cy="498.5" r="186.7"/>
	<circle class="st145" cx="503.5" cy="498.5" r="184.5"/>
	<circle class="st146" cx="503.5" cy="498.5" r="184"/>
	<circle class="st147" cx="503.5" cy="498.5" r="183.5"/>
	<circle class="st148" cx="503.5" cy="498.5" r="183"/>
	<circle class="st149" cx="503.5" cy="498.5" r="182.5"/>
	<circle class="st150" cx="503.5" cy="498.5" r="181.9"/>
	<circle class="st151" cx="503.5" cy="498.5" r="181.4"/>
	<circle class="st152" cx="503.5" cy="498.5" r="180.9"/>
	<circle class="st153" cx="503.5" cy="498.5" r="180.4"/>
	<circle class="st154" cx="503.5" cy="498.5" r="179.9"/>
	<circle class="st155" cx="503.5" cy="498.5" r="179.4"/>
	<circle class="st156" cx="503.5" cy="498.5" r="178.9"/>
	<circle class="st157" cx="503.5" cy="498.5" r="178.4"/>
	<circle class="st158" cx="503.5" cy="498.5" r="177.9"/>
	<circle class="st159" cx="503.5" cy="498.5" r="177.4"/>
	<circle class="st160" cx="503.5" cy="498.5" r="176.8"/>
	<circle class="st161" cx="503.5" cy="498.5" r="176.3"/>
	<circle class="st162" cx="503.5" cy="498.5" r="175.8"/>
	<circle class="st163" cx="503.5" cy="498.5" r="175.3"/>
	<circle class="st164" cx="503.5" cy="498.5" r="174.8"/>
	<circle class="st165" cx="503.6" cy="498.6" r="174.3"/>
	<circle class="st166" cx="503.6" cy="498.6" r="173.8"/>
	<circle class="st167" cx="503.6" cy="498.6" r="173.3"/>
	<circle class="st168" cx="503.6" cy="498.6" r="172.8"/>
	<circle class="st169" cx="503.6" cy="498.6" r="172.3"/>
	<circle class="st170" cx="503.6" cy="498.6" r="171.7"/>
	<circle class="st171" cx="503.6" cy="498.6" r="171.2"/>
	<circle class="st172" cx="503.6" cy="498.6" r="170.7"/>
	<circle class="st173" cx="503.6" cy="498.6" r="170.2"/>
	<circle class="st174" cx="503.6" cy="498.6" r="169.7"/>
	<circle class="st175" cx="503.6" cy="498.6" r="169.2"/>
	<circle class="st176" cx="503.6" cy="498.6" r="168.7"/>
	<circle class="st177" cx="503.6" cy="498.6" r="168.2"/>
	<circle class="st178" cx="503.6" cy="498.6" r="167.7"/>
	<circle class="st179" cx="503.6" cy="498.6" r="167.2"/>
	<circle class="st180" cx="503.6" cy="498.6" r="166.6"/>
	<circle class="st181" cx="503.6" cy="498.6" r="166.1"/>
	<circle class="st182" cx="503.6" cy="498.6" r="165.6"/>
	<circle class="st183" cx="503.6" cy="498.6" r="165.1"/>
	<circle class="st184" cx="503.6" cy="498.6" r="164.6"/>
	<circle class="st185" cx="503.6" cy="498.6" r="164.1"/>
	<circle class="st186" cx="503.6" cy="498.6" r="163.6"/>
	<circle class="st187" cx="503.6" cy="498.6" r="163.1"/>
	<circle class="st188" cx="503.6" cy="498.6" r="162.6"/>
	<circle class="st189" cx="503.6" cy="498.6" r="162"/>
	<circle class="st190" cx="503.6" cy="498.6" r="161.5"/>
	<circle class="st191" cx="503.6" cy="498.6" r="161"/>
	<circle class="st192" cx="503.6" cy="498.6" r="160.5"/>
	<circle class="st193" cx="503.6" cy="498.6" r="160"/>
	<circle class="st194" cx="503.6" cy="498.6" r="159.5"/>
	<circle class="st195" cx="503.6" cy="498.6" r="159"/>
	<circle class="st196" cx="503.6" cy="498.6" r="158.5"/>
	<circle class="st197" cx="503.6" cy="498.6" r="158"/>
	<circle class="st198" cx="503.6" cy="498.6" r="157.5"/>
	<circle class="st199" cx="503.6" cy="498.6" r="156.9"/>
	<circle class="st200" cx="503.6" cy="498.6" r="156.4"/>
	<circle class="st201" cx="503.6" cy="498.6" r="155.9"/>
	<circle class="st202" cx="503.6" cy="498.6" r="155.4"/>
	<circle class="st203" cx="503.6" cy="498.6" r="154.9"/>
	<circle class="st204" cx="503.7" cy="498.7" r="154.4"/>
	<circle class="st205" cx="503.7" cy="498.7" r="153.9"/>
	<circle class="st206" cx="503.7" cy="498.7" r="153.4"/>
	<circle class="st207" cx="503.7" cy="498.7" r="152.9"/>
	<circle class="st208" cx="503.7" cy="498.7" r="152.4"/>
	<circle class="st209" cx="503.7" cy="498.7" r="151.8"/>
	<circle class="st210" cx="503.7" cy="498.7" r="151.3"/>
	<circle class="st211" cx="503.7" cy="498.7" r="150.8"/>
	<circle class="st212" cx="503.7" cy="498.7" r="150.3"/>
	<circle class="st213" cx="503.7" cy="498.7" r="149.8"/>
	<circle class="st214" cx="503.7" cy="498.7" r="149.3"/>
	<circle class="st215" cx="503.7" cy="498.7" r="148.8"/>
	<circle class="st216" cx="503.7" cy="498.7" r="148.3"/>
	<circle class="st217" cx="503.7" cy="498.7" r="147.8"/>
	<circle class="st218" cx="503.7" cy="498.7" r="147.3"/>
	<circle class="st219" cx="503.7" cy="498.7" r="146.7"/>
	<circle class="st220" cx="503.7" cy="498.7" r="146.2"/>
	<circle class="st221" cx="503.7" cy="498.7" r="145.7"/>
	<circle class="st222" cx="503.7" cy="498.7" r="145.2"/>
	<circle class="st223" cx="503.7" cy="498.7" r="144.7"/>
	<circle class="st224" cx="503.7" cy="498.7" r="144.2"/>
	<circle class="st225" cx="503.7" cy="498.7" r="143.7"/>
	<circle class="st226" cx="503.7" cy="498.7" r="143.2"/>
	<circle class="st227" cx="503.7" cy="498.7" r="142.7"/>
	<circle class="st228" cx="503.7" cy="498.7" r="142.1"/>
	<circle class="st229" cx="503.7" cy="498.7" r="141.6"/>
	<circle class="st230" cx="503.7" cy="498.7" r="141.1"/>
	<circle class="st231" cx="503.7" cy="498.7" r="140.6"/>
	<circle class="st232" cx="503.7" cy="498.7" r="140.1"/>
	<circle class="st233" cx="503.7" cy="498.7" r="139.6"/>
	<circle class="st234" cx="503.7" cy="498.7" r="139.1"/>
	<circle class="st235" cx="503.7" cy="498.7" r="138.6"/>
	<circle class="st236" cx="503.7" cy="498.7" r="138.1"/>
	<circle class="st237" cx="503.7" cy="498.7" r="137.6"/>
	<circle class="st238" cx="503.7" cy="498.7" r="137"/>
	<circle class="st239" cx="503.7" cy="498.7" r="136.5"/>
	<circle class="st240" cx="503.7" cy="498.7" r="136"/>
	<circle class="st241" cx="503.7" cy="498.7" r="135.5"/>
	<circle class="st242" cx="503.7" cy="498.7" r="135"/>
	<circle class="st243" cx="503.8" cy="498.8" r="134.5"/>
	<circle class="st244" cx="503.8" cy="498.8" r="134"/>
	<circle class="st245" cx="503.8" cy="498.8" r="133.5"/>
	<circle class="st246" cx="503.8" cy="498.8" r="133"/>
	<circle class="st247" cx="503.8" cy="498.8" r="132.5"/>
	<circle class="st248" cx="503.8" cy="498.8" r="131.9"/>
	<circle class="st249" cx="503.8" cy="498.8" r="131.4"/>
	<circle class="st250" cx="503.8" cy="498.8" r="130.9"/>
	<circle class="st251" cx="503.8" cy="498.8" r="130.4"/>
	<circle class="st252" cx="503.8" cy="498.8" r="129.9"/>
	<circle class="st253" cx="503.8" cy="498.8" r="129.4"/>
	<circle class="st254" cx="503.8" cy="498.8" r="128.9"/>
	<circle class="st255" cx="503.8" cy="498.8" r="128.4"/>
	<circle class="st256" cx="503.8" cy="498.8" r="127.9"/>
	<circle class="st257" cx="503.8" cy="498.8" r="127.4"/>
	<circle class="st258" cx="503.8" cy="498.8" r="126.8"/>
	<circle class="st259" cx="503.8" cy="498.8" r="126.3"/>
	<circle class="st260" cx="503.8" cy="498.8" r="125.8"/>
	<circle class="st261" cx="503.8" cy="498.8" r="125.3"/>
	<circle class="st262" cx="503.8" cy="498.8" r="124.8"/>
	<circle class="st263" cx="503.8" cy="498.8" r="124.3"/>
	<circle class="st264" cx="503.8" cy="498.8" r="123.8"/>
	<circle class="st265" cx="503.8" cy="498.8" r="123.3"/>
	<circle class="st266" cx="503.8" cy="498.8" r="122.8"/>
	<circle class="st267" cx="503.8" cy="498.8" r="122.2"/>
	<circle class="st268" cx="503.8" cy="498.8" r="121.7"/>
	<circle class="st269" cx="503.8" cy="498.8" r="121.2"/>
	<circle class="st270" cx="503.8" cy="498.8" r="120.7"/>
	<circle class="st271" cx="503.8" cy="498.8" r="120.2"/>
	<circle class="st272" cx="503.8" cy="498.8" r="119.7"/>
	<circle class="st273" cx="503.8" cy="498.8" r="119.2"/>
	<circle class="st274" cx="503.8" cy="498.8" r="118.7"/>
	<circle class="st275" cx="503.8" cy="498.8" r="118.2"/>
	<circle class="st276" cx="503.8" cy="498.8" r="117.7"/>
	<circle class="st277" cx="503.8" cy="498.8" r="117.1"/>
	<circle class="st278" cx="503.8" cy="498.8" r="116.6"/>
	<circle class="st279" cx="503.8" cy="498.8" r="116.1"/>
	<circle class="st280" cx="503.8" cy="498.8" r="115.6"/>
	<circle class="st281" cx="503.8" cy="498.8" r="115.1"/>
	<circle class="st282" cx="503.9" cy="498.9" r="114.6"/>
	<circle class="st283" cx="503.9" cy="498.9" r="114.1"/>
	<circle class="st284" cx="503.9" cy="498.9" r="113.6"/>
	<circle class="st285" cx="503.9" cy="498.9" r="113.1"/>
	<circle class="st286" cx="503.9" cy="498.9" r="112.6"/>
	<circle class="st287" cx="503.9" cy="498.9" r="112"/>
	<circle class="st288" cx="503.9" cy="498.9" r="111.5"/>
	<circle class="st289" cx="503.9" cy="498.9" r="111"/>
	<circle class="st290" cx="503.9" cy="498.9" r="110.5"/>
	<circle class="st291" cx="503.9" cy="498.9" r="110"/>
	<circle class="st292" cx="503.9" cy="498.9" r="109.5"/>
	<circle class="st293" cx="503.9" cy="498.9" r="109"/>
	<circle class="st294" cx="503.9" cy="498.9" r="108.5"/>
	<circle class="st295" cx="503.9" cy="498.9" r="108"/>
	<circle class="st296" cx="503.9" cy="498.9" r="107.5"/>
	<circle class="st297" cx="503.9" cy="498.9" r="106.9"/>
	<circle class="st298" cx="503.9" cy="498.9" r="106.4"/>
	<circle class="st299" cx="503.9" cy="498.9" r="105.9"/>
	<circle class="st300" cx="503.9" cy="498.9" r="105.4"/>
	<circle class="st301" cx="503.9" cy="498.9" r="104.9"/>
	<circle class="st302" cx="503.9" cy="498.9" r="104.4"/>
	<circle class="st303" cx="503.9" cy="498.9" r="103.9"/>
	<circle class="st304" cx="503.9" cy="498.9" r="103.4"/>
	<circle class="st305" cx="503.9" cy="498.9" r="102.9"/>
	<circle class="st306" cx="503.9" cy="498.9" r="102.3"/>
	<circle class="st307" cx="503.9" cy="498.9" r="101.8"/>
	<circle class="st308" cx="503.9" cy="498.9" r="101.3"/>
	<circle class="st309" cx="503.9" cy="498.9" r="100.8"/>
	<circle class="st310" cx="503.9" cy="498.9" r="100.3"/>
	<circle class="st311" cx="503.9" cy="498.9" r="99.8"/>
	<circle class="st312" cx="503.9" cy="498.9" r="99.3"/>
	<circle class="st313" cx="503.9" cy="498.9" r="98.8"/>
	<circle class="st314" cx="503.9" cy="498.9" r="98.3"/>
	<circle class="st315" cx="503.9" cy="498.9" r="97.8"/>
	<circle class="st316" cx="503.9" cy="498.9" r="97.2"/>
	<circle class="st317" cx="503.9" cy="498.9" r="96.7"/>
	<circle class="st318" cx="503.9" cy="498.9" r="96.2"/>
	<circle class="st319" cx="503.9" cy="498.9" r="95.7"/>
	<circle class="st320" cx="503.9" cy="498.9" r="95.2"/>
	<circle class="st321" cx="504" cy="499" r="94.7"/>
	<circle class="st322" cx="504" cy="499" r="94.2"/>
	<circle class="st323" cx="504" cy="499" r="93.7"/>
	<circle class="st324" cx="504" cy="499" r="93.2"/>
	<circle class="st325" cx="504" cy="499" r="92.7"/>
	<circle class="st326" cx="504" cy="499" r="92.1"/>
	<circle class="st327" cx="504" cy="499" r="91.6"/>
	<circle class="st328" cx="504" cy="499" r="91.1"/>
	<circle class="st329" cx="504" cy="499" r="90.6"/>
	<circle class="st330" cx="504" cy="499" r="90.1"/>
	<circle class="st331" cx="504" cy="499" r="89.6"/>
	<circle class="st332" cx="504" cy="499" r="89.1"/>
	<circle class="st333" cx="504" cy="499" r="88.6"/>
	<circle class="st334" cx="504" cy="499" r="88.1"/>
	<circle class="st335" cx="504" cy="499" r="87.6"/>
	<circle class="st336" cx="504" cy="499" r="87"/>
	<circle class="st337" cx="504" cy="499" r="86.5"/>
	<circle class="st338" cx="504" cy="499" r="86"/>
	<circle class="st339" cx="504" cy="499" r="85.5"/>
	<circle class="st340" cx="504" cy="499" r="85"/>
</g>
<path class="st341" d="M791.5,715.1C829.3,686.9,853,646.7,853,602c0-85.4-86.6-154.6-193.4-154.6c-88.7,0-163.5,47.7-186.3,112.8
	c-8.3,19.8-14.2,72.8-14.2,135c0,31.7,2,60.9,5.3,84.6c-0.5,64.4,34,88.9,82.4,58.7c35.1-21.9,80.6-37.6,80.6-83.9
	c0-0.1,0-0.2,0-0.3c10.5,1.4,21.3,2.2,32.2,2.2c3.2,0,6.3-0.1,9.5-0.2c-3.5,21.9-1.3,43.6,23.3,64.2c40,33.5,98.6,40.8,130.8,16.2
	c32.2-24.6,21.4-68.6-14.2-105.2C803,725.6,797.2,720.1,791.5,715.1z"/>
<path class="st342" d="M290.2,178H165.3v404.1h124.9c175.5,0,317.8-90.5,317.8-202S465.7,178,290.2,178z"/>
<path class="st343" d="M461.1,375.3c0-52.1-42.2-94.3-94.3-94.3s-94.3,42.2-94.3,94.3c0,5,0.4,10,1.2,14.8h186.3
	C460.7,385.3,461.1,380.4,461.1,375.3z"/>
<path class="st145" d="M271.4,390.3c7.3,46.2,47,81.6,95.3,81.6s88-35,95.3-81.3L271.4,390.3z"/>
<g>
	<polygon class="st145" points="308.9,317.7 273.1,390.6 295,390.6 344.8,390.6 321.9,344 	"/>
</g>
<g>
	<polygon class="st145" points="358.7,297.8 327.8,351.4 350.6,397.8 357.2,397.8 385.2,343.7 	"/>
</g>
<g>
	<polygon class="st145" points="411.2,297 390.8,336.5 362.8,390.6 422.1,390.6 459.5,390.8 	"/>
</g>
<path class="st340" d="M561.8,626.5c9,43.2,47.6,75.5,93.1,75.5c45.5,0,85.3-32.4,94.3-75.5H561.8z"/>
<path class="st344" d="M750.1,605.6c0-52.2-42.3-94.5-94.5-94.5c-52.2,0-94.5,42.3-94.5,94.5c0,6.7,0.7,13.3,2.1,19.7h185
	C749.4,618.9,750.1,612.3,750.1,605.6z"/>
<path class="st340" d="M737.1,593.5v5h-4.7v-16.1h-9.7v16.1h-3v-26.7h-13.8v26.7h-1.5v-15.6h-10.9v15.6h-1.9V551h-8.8v26.6h-11.9
	v20.9h-3.3v-16.7h-4.1v-15.9h0c-0.3-5.1-3.4-9-7-9v-4.8c-3.9,0-7.1,5.6-7.1,12.4c0,0.5,0,0.9,0,1.4h0v32.6h-0.4v-6.4H647v-4.4h-2.4
	v-6h-11.2v16.8h-0.6v-42.4h-12.6v42.4h-1.6v-23H616v-5.3h-1.4v-3.7h-3.2v3.7h-1.3v1.6h-2.3v3.7h-0.8v23h-6v-22.1h-2.5v-4.7h-20
	v-12.9h-1.7v33.9H575v-23.1h-1.7v23.1h-10.4v32.8h22.5v-0.1h15.7v0h136.7v-0.2h10.4v-31.7H737.1z"/>
</svg>
