<?xml version="1.0" encoding="utf-8"?>
<!-- Generator: Adobe Illustrator 21.0.0, SVG Export Plug-In . SVG Version: 6.00 Build 0)  -->
<svg version="1.1" id="Layer_1" xmlns="http://www.w3.org/2000/svg" xmlns:xlink="http://www.w3.org/1999/xlink" x="0px" y="0px"
	 viewBox="0 0 1000 1000" style="enable-background:new 0 0 1000 1000;" xml:space="preserve">
<style type="text/css">
	.st0{fill:#1B1464;}
	.st1{fill:#F15A24;}
</style>
<circle cx="500" cy="500" r="500"/>
<path class="st0" d="M791.5,715.1C829.3,686.9,853,646.7,853,602c0-85.4-86.6-154.6-193.4-154.6c-88.7,0-163.5,47.7-186.3,112.8
	c-8.3,19.8-14.2,72.8-14.2,135c0,31.7,2,60.9,5.3,84.6c-0.5,64.4,34,88.9,82.4,58.7c35.1-21.9,80.6-37.6,80.6-83.9
	c0-0.1,0-0.2,0-0.3c10.5,1.4,21.3,2.2,32.2,2.2c3.2,0,6.3-0.1,9.5-0.2c-3.5,21.9-1.3,43.6,23.3,64.2c40,33.5,98.6,40.8,130.8,16.2
	c32.2-24.6,21.4-68.6-14.2-105.2C803,725.6,797.2,720.1,791.5,715.1z"/>
<path class="st1" d="M778.9,610.2v7.7H772v-25h-14.2v25h-4.3v-41.4h-20.1v41.4h-2.2v-24.2h-16v24.2h-2.8v-73.7h-13v41.2H682v32.4
	h-4.8V592h-6.1v-24.7h0c-0.5-7.8-4.9-14-10.3-14V546c-5.7,0-10.4,8.6-10.4,19.3c0,0.7,0,1.4,0.1,2.1h-0.1v50.6h-0.6V608H647v-6.8
	h-3.6v-9.3H627v26h-0.8v-65.7h-18.4v65.7h-2.3v-35.7h-3.7v-8.2h-2v-5.7h-4.6v5.7h-1.9v2.5h-3.4v5.7h-1.2v35.7h-8.7v-34.2h-3.7v-7.3
	h-29.3v-20h-2.4V609h-2.8v-35.8h-2.4V609h-15.3v50.8h33v-0.1h23v0H780v-0.4h15.3v-49.1H778.9z"/>
<path class="st1" d="M290.2,178H165.3v404.1h124.9c175.5,0,317.8-90.5,317.8-202S465.7,178,290.2,178z"/>
<g>
	<path class="st0" d="M471.4,319.4L455.6,292l-17.4,30.1c3.8,1.3,8.3,2.5,13.4,2.5C459.9,324.6,464.6,320.5,471.4,319.4z"/>
</g>
<g>
	<path class="st0" d="M438.2,328.2c3.8,1.3,8.3,2.5,13.4,2.5c8.3,0,13-4.1,19.8-5.1l68.8,119.1h-96.9l-36.1-62.6L438.2,328.2z"/>
</g>
<g>
	<path class="st0" d="M283.3,325.9c3.6-1.8,11.5-5.5,14.6-3c1.7,1.4,4.7,2,7.1,2L285.4,291l-18.3,31.7
		C272.9,325.3,280,327.6,283.3,325.9z"/>
</g>
<g>
	<path class="st0" d="M200.8,444.6l66.3-114.8c5.8,2.7,12.9,4.9,16.2,3.3c3.6-1.8,11.5-5.5,14.6-3c1.7,1.4,4.7,2,7.1,2l22.5,39
		l-42.5,73.5H200.8z"/>
</g>
<g>
	<path class="st0" d="M369.8,346.9c5.6-1.6,12.3-2.7,16.9-2.7l-21.4-37.1l-18.7,32.4c3.8,1.4,6.9,3.8,6.9,3.8
		S361.3,349.3,369.8,346.9z"/>
</g>
<g>
	<path class="st0" d="M448.8,460.4L385.6,351c-4.6,0-11.3,1.1-16.9,2.7c-8.5,2.4-16.4-3.6-16.4-3.6s-3-2.4-6.9-3.8l-65.9,114.1
		H448.8z"/>
</g>
<ellipse class="st1" cx="659.5" cy="659" rx="135.5" ry="27"/>
</svg>
